<svg width="50" height="50" viewBox="0 0 50 50" fill="none" xmlns="http://www.w3.org/2000/svg">
<path d="M25 4.16675C16.9375 4.16675 10.4166 10.6876 10.4166 18.7501C10.4166 29.6876 25 45.8334 25 45.8334C25 45.8334 39.5833 29.6876 39.5833 18.7501C39.5833 10.6876 33.0625 4.16675 25 4.16675ZM14.5833 18.7501C14.5833 13.0001 19.25 8.33342 25 8.33342C30.75 8.33342 35.4166 13.0001 35.4166 18.7501C35.4166 24.7501 29.4166 33.7292 25 39.3334C20.6666 33.7709 14.5833 24.6876 14.5833 18.7501Z" fill="white"/>
<path d="M25 23.9584C27.8764 23.9584 30.2083 21.6266 30.2083 18.7501C30.2083 15.8736 27.8764 13.5417 25 13.5417C22.1235 13.5417 19.7916 15.8736 19.7916 18.7501C19.7916 21.6266 22.1235 23.9584 25 23.9584Z" fill="white"/>
</svg>
