<svg width="50" height="50" viewBox="0 0 50 50" fill="none" xmlns="http://www.w3.org/2000/svg">
<path d="M25 12.2916C25.5746 12.2916 26.1435 12.4047 26.6743 12.6246C27.2051 12.8445 27.6874 13.1667 28.0936 13.573C28.4999 13.9792 28.8221 14.4615 29.042 14.9923C29.2619 15.5231 29.375 16.0921 29.375 16.6666C29.375 17.2411 29.2619 17.81 29.042 18.3408C28.8221 18.8716 28.4999 19.3539 28.0936 19.7602C27.6874 20.1664 27.2051 20.4887 26.6743 20.7086C26.1435 20.9284 25.5746 21.0416 25 21.0416C23.8397 21.0416 22.7269 20.5806 21.9064 19.7602C21.086 18.9397 20.625 17.8269 20.625 16.6666C20.625 15.5063 21.086 14.3935 21.9064 13.573C22.7269 12.7525 23.8397 12.2916 25 12.2916ZM25 31.0416C31.1875 31.0416 37.7084 34.0833 37.7084 35.4166V37.7083H12.2917V35.4166C12.2917 34.0833 18.8125 31.0416 25 31.0416ZM25 8.33325C20.3959 8.33325 16.6667 12.0624 16.6667 16.6666C16.6667 21.2708 20.3959 24.9999 25 24.9999C29.6042 24.9999 33.3334 21.2708 33.3334 16.6666C33.3334 12.0624 29.6042 8.33325 25 8.33325ZM25 27.0833C19.4375 27.0833 8.33337 29.8749 8.33337 35.4166V41.6666H41.6667V35.4166C41.6667 29.8749 30.5625 27.0833 25 27.0833Z" fill="white"/>
</svg>
