<svg width="48" height="48" viewBox="0 0 48 48" fill="none" xmlns="http://www.w3.org/2000/svg">
<path d="M42.9731 39.9375C40.0088 34.815 35.355 31.2206 29.9475 29.6962C32.5765 28.3598 34.6788 26.1769 35.9155 23.4995C37.1521 20.8221 37.4509 17.8062 36.7638 14.9382C36.0767 12.0702 34.4437 9.51712 32.1281 7.69074C29.8124 5.86436 26.9492 4.87109 24 4.87109C21.0508 4.87109 18.1876 5.86436 15.8719 7.69074C13.5563 9.51712 11.9233 12.0702 11.2362 14.9382C10.5491 17.8062 10.8479 20.8221 12.0846 23.4995C13.3212 26.1769 15.4235 28.3598 18.0525 29.6962C12.645 31.2187 7.99126 34.8131 5.02688 39.9375C4.94548 40.0655 4.89083 40.2087 4.8662 40.3584C4.84158 40.5081 4.84749 40.6613 4.88359 40.8087C4.91969 40.956 4.98522 41.0946 5.07625 41.216C5.16728 41.3373 5.28193 41.4391 5.41329 41.515C5.54465 41.5909 5.69001 41.6395 5.84063 41.6578C5.99125 41.6761 6.14402 41.6637 6.28974 41.6215C6.43546 41.5792 6.57112 41.5079 6.68856 41.4118C6.806 41.3157 6.9028 41.1969 6.97313 41.0625C10.575 34.8393 16.9388 31.125 24 31.125C31.0613 31.125 37.425 34.8393 41.0269 41.0625C41.0972 41.1969 41.194 41.3157 41.3115 41.4118C41.4289 41.5079 41.5646 41.5792 41.7103 41.6215C41.856 41.6637 42.0088 41.6761 42.1594 41.6578C42.31 41.6395 42.4554 41.5909 42.5867 41.515C42.7181 41.4391 42.8327 41.3373 42.9238 41.216C43.0148 41.0946 43.0803 40.956 43.1164 40.8087C43.1525 40.6613 43.1584 40.5081 43.1338 40.3584C43.1092 40.2087 43.0545 40.0655 42.9731 39.9375ZM13.125 18C13.125 15.8491 13.7628 13.7465 14.9578 11.9581C16.1527 10.1698 17.8512 8.77588 19.8383 7.95278C21.8255 7.12967 24.0121 6.91431 26.1216 7.33393C28.2312 7.75354 30.1689 8.78928 31.6898 10.3102C33.2107 11.8311 34.2464 13.7688 34.666 15.8784C35.0857 17.9879 34.8703 20.1745 34.0472 22.1616C33.2241 24.1488 31.8302 25.8472 30.0418 27.0422C28.2534 28.2372 26.1509 28.875 24 28.875C21.1168 28.8715 18.3528 27.7246 16.3141 25.6859C14.2754 23.6472 13.1285 20.8831 13.125 18Z" fill="white"/>
</svg>
